<svg width="448" height="187" viewBox="0 0 448 187" fill="none" xmlns="http://www.w3.org/2000/svg">
  <mask id="mask0_714_1220" style="mask-type:alpha" maskUnits="userSpaceOnUse" x="0" y="0" width="448" height="187">
    <rect x="6.10352e-05" width="448" height="187" fill="#131F41" />
  </mask>
  <g mask="url(#mask0_714_1220)">
    <rect x="6.10352e-05" width="448" height="187" fill="#FFF9EE" />
  </g>
  <g clip-path="url(#clip0_714_1220)">
    <path d="M195.153 94.255C195.153 86.6706 192.99 82.7768 188.665 82.5636C186.944 82.4824 185.264 82.7565 183.629 83.3911C182.324 83.8581 181.446 84.3201 180.984 84.7872V102.89C183.751 104.627 186.208 105.434 188.35 105.307C192.884 105.007 195.153 101.327 195.153 94.255ZM200.488 94.5698C200.488 98.4229 199.585 101.621 197.767 104.165C195.742 107.043 192.934 108.525 189.345 108.607C186.639 108.693 183.852 107.845 180.984 106.068V122.522L176.344 120.867V84.3455C177.105 83.4114 178.085 82.6093 179.273 81.929C182.035 80.3197 185.391 79.4923 189.34 79.4516L189.406 79.5176C193.016 79.4719 195.798 80.9543 197.752 83.9597C199.575 86.7163 200.488 90.2496 200.488 94.5698Z" fill="#646464" />
    <path d="M228.846 105.368C228.846 110.536 228.328 114.115 227.293 116.105C226.252 118.095 224.272 119.684 221.348 120.867C218.977 121.801 216.414 122.308 213.662 122.395L212.896 119.471C215.693 119.09 217.662 118.709 218.805 118.328C221.054 117.567 222.597 116.399 223.445 114.836C224.125 113.561 224.46 111.13 224.46 107.53V106.322C221.287 107.764 217.962 108.48 214.485 108.48C212.2 108.48 210.185 107.764 208.448 106.322C206.499 104.753 205.524 102.763 205.524 100.352V81.0406L210.164 79.4516V98.89C210.164 100.966 210.834 102.565 212.175 103.687C213.515 104.809 215.251 105.347 217.378 105.307C219.505 105.261 221.785 104.439 224.206 102.829V80.1522H228.846V105.368Z" fill="#646464" />
    <path d="M246.96 108.353C246.406 108.398 245.899 108.419 245.432 108.419C242.807 108.419 240.761 107.794 239.299 106.54C237.842 105.286 237.111 103.555 237.111 101.347V83.0713H233.933V80.1522H237.111V72.4002L241.746 70.7503V80.1522H246.96V83.0713H241.746V101.22C241.746 102.961 242.213 104.195 243.147 104.916C243.949 105.51 245.223 105.85 246.96 105.936V108.353Z" fill="#646464" />
    <path d="M275.054 107.972H270.414V90.0618C270.414 88.2393 269.987 86.6706 269.139 85.3609C268.16 83.8785 266.799 83.1373 265.053 83.1373C262.926 83.1373 260.265 84.2592 257.072 86.5031V107.972H252.432V65.161L257.072 63.699V83.1982C260.037 81.0407 263.276 79.9594 266.794 79.9594C269.251 79.9594 271.241 80.7868 272.764 82.4367C274.292 84.0866 275.054 86.1427 275.054 88.5997V107.972Z" fill="#646464" />
    <path d="M299.716 93.524C299.716 90.61 299.162 88.2037 298.061 86.3C296.751 83.98 294.715 82.7565 291.964 82.6296C286.877 82.924 284.339 86.5691 284.339 93.5545C284.339 96.7578 284.867 99.4332 285.933 101.581C287.293 104.317 289.334 105.667 292.055 105.622C297.162 105.581 299.716 101.55 299.716 93.524ZM304.797 93.5545C304.797 97.7021 303.736 101.154 301.62 103.911C299.289 106.997 296.071 108.546 291.964 108.546C287.892 108.546 284.72 106.997 282.43 103.911C280.354 101.154 279.318 97.7021 279.318 93.5545C279.318 89.6556 280.44 86.3761 282.684 83.7058C285.055 80.8731 288.172 79.4516 292.025 79.4516C295.878 79.4516 299.015 80.8731 301.432 83.7058C303.676 86.3761 304.797 89.6556 304.797 93.5545Z" fill="#646464" />
    <path d="M331.399 107.972H326.759V89.0464C326.759 86.9701 326.134 85.3507 324.886 84.183C323.637 83.0205 321.972 82.457 319.895 82.5027C317.692 82.5433 315.595 83.2642 313.605 84.6602V107.972H308.965V84.0866C311.636 82.1423 314.093 80.8731 316.337 80.2791C318.454 79.7258 320.322 79.4516 321.931 79.4516C323.033 79.4516 324.068 79.5583 325.043 79.7715C326.865 80.1928 328.348 80.9746 329.49 82.1219C330.764 83.3911 331.399 84.9141 331.399 86.696V107.972Z" fill="#646464" />
    <path d="M130.516 65.3324C128.128 65.3435 125.849 65.5471 123.843 65.9021C117.933 66.9461 116.86 69.1313 116.86 73.1612V78.4834H130.825V80.2575H116.86H111.619C107.561 80.2575 104.007 82.697 102.895 87.3376C101.613 92.6569 101.556 95.9762 102.895 101.53C103.888 105.665 106.259 108.61 110.317 108.61H115.119V102.23C115.119 97.6209 119.107 93.5551 123.843 93.5551H137.791C141.674 93.5551 144.774 90.3581 144.774 86.4587V73.1612C144.774 69.3766 141.581 66.5337 137.791 65.9021C135.392 65.5027 132.903 65.3213 130.516 65.3324ZM122.964 69.613C124.406 69.613 125.584 70.8102 125.584 72.2823C125.584 73.7491 124.406 74.9353 122.964 74.9353C121.516 74.9353 120.343 73.7491 120.343 72.2823C120.343 70.8102 121.516 69.613 122.964 69.613Z" fill="url(#paint0_linear_714_1220)" />
    <path d="M146.515 80.2576V86.4587C146.515 91.2664 142.439 95.3129 137.791 95.3129H123.843C120.022 95.3129 116.86 98.5829 116.86 102.409V115.707C116.86 119.491 120.151 121.717 123.843 122.803C128.263 124.103 132.502 124.338 137.791 122.803C141.307 121.785 144.774 119.737 144.774 115.707V110.385H130.825V108.61H144.774H151.756C155.815 108.61 157.327 105.779 158.738 101.53C160.196 97.1559 160.134 92.9492 158.738 87.3376C157.735 83.2973 155.82 80.2576 151.756 80.2576H146.515ZM138.67 113.933C140.118 113.933 141.29 115.119 141.29 116.586C141.29 118.058 140.118 119.255 138.67 119.255C137.228 119.255 136.05 118.058 136.05 116.586C136.05 115.119 137.228 113.933 138.67 113.933Z" fill="url(#paint1_linear_714_1220)" />
  </g>
  <defs>
    <linearGradient id="paint0_linear_714_1220" x1="101.912" y1="65.3319" x2="134.114" y2="92.772" gradientUnits="userSpaceOnUse">
      <stop stop-color="#5A9FD4" />
      <stop offset="1" stop-color="#306998" />
    </linearGradient>
    <linearGradient id="paint1_linear_714_1220" x1="138.334" y1="116.138" x2="126.782" y2="99.9495" gradientUnits="userSpaceOnUse">
      <stop stop-color="#FFD43B" />
      <stop offset="1" stop-color="#FFE873" />
    </linearGradient>
    <clipPath id="clip0_714_1220">
      <rect width="250" height="64" fill="white" transform="translate(99 62.0001)" />
    </clipPath>
  </defs>
</svg>