<svg width="448" height="187" viewBox="0 0 448 187" fill="none" xmlns="http://www.w3.org/2000/svg">
  <mask id="mask0_714_1191" style="mask-type:alpha" maskUnits="userSpaceOnUse" x="0" y="0" width="448" height="187">
    <rect width="448" height="187" fill="#131F41" />
  </mask>
  <g mask="url(#mask0_714_1191)">
    <rect width="448" height="187" fill="#E8E8FF" />
  </g>
  <g clip-path="url(#clip0_714_1191)">
    <path d="M224 138C248.301 138 268 118.301 268 94C268 69.6995 248.301 50 224 50C199.699 50 180 69.6995 180 94C180 118.301 199.699 138 224 138Z" fill="#5C2D91" />
    <path opacity="0.1" d="M193.503 62.375C189.03 66.3609 185.418 71.2182 182.889 76.6493C180.359 82.0804 178.966 87.9709 178.793 93.9596C178.621 99.9483 179.674 105.909 181.887 111.477C184.1 117.044 187.426 122.101 191.663 126.337C195.899 130.574 200.956 133.9 206.523 136.113C212.091 138.326 218.052 139.379 224.04 139.207C230.029 139.034 235.92 137.641 241.351 135.112C246.782 132.582 251.639 128.97 255.625 124.498L193.503 62.375Z" fill="white" />
    <path d="M190.175 101.219C189.918 101.223 189.664 101.174 189.427 101.074C189.19 100.975 188.977 100.827 188.8 100.641C188.618 100.462 188.475 100.247 188.378 100.011C188.281 99.775 188.233 99.5216 188.236 99.2663C188.234 99.0111 188.283 98.7582 188.38 98.5222C188.477 98.2861 188.62 98.0717 188.8 97.8913C188.975 97.702 189.188 97.5516 189.425 97.4497C189.662 97.3479 189.917 97.2969 190.175 97.3C190.432 97.2994 190.687 97.3515 190.924 97.4532C191.16 97.5549 191.373 97.704 191.55 97.8913C191.734 98.07 191.879 98.2839 191.978 98.5201C192.078 98.7563 192.128 99.0101 192.128 99.2663C192.13 99.5227 192.08 99.7769 191.981 100.013C191.881 100.25 191.735 100.463 191.55 100.641C191.372 100.825 191.158 100.971 190.922 101.071C190.685 101.17 190.431 101.22 190.175 101.219Z" fill="white" />
    <path d="M217.496 100.875H213.894L201.01 80.8825C200.689 80.3899 200.422 79.8644 200.213 79.315H200.103C200.225 80.4565 200.271 81.6049 200.24 82.7525V100.875H197.311V75.8088H201.12L213.66 95.4438C214.183 96.2596 214.522 96.8188 214.678 97.1213H214.746C214.601 95.8986 214.541 94.6673 214.568 93.4363V75.8088H217.496V100.875Z" fill="white" />
    <path d="M237.324 100.875H224V75.8088H236.705V78.4625H226.998V86.795H236.045V89.435H226.998V98.125H237.338L237.324 100.875Z" fill="white" />
    <path d="M257 78.4625H249.712V100.875H246.784V78.4625H239.579V75.8088H257V78.4625Z" fill="white" />
    <path d="M215.915 117.925C214.922 118.406 213.827 118.637 212.725 118.599C211.992 118.632 211.261 118.508 210.581 118.235C209.9 117.962 209.286 117.547 208.779 117.018C207.768 115.887 207.236 114.408 207.294 112.893C207.257 112.072 207.385 111.252 207.671 110.482C207.957 109.712 208.394 109.008 208.957 108.41C209.506 107.848 210.166 107.406 210.896 107.112C211.625 106.818 212.407 106.68 213.192 106.705C214.133 106.673 215.069 106.837 215.942 107.186V108.561C215.102 108.096 214.153 107.859 213.192 107.874C212.587 107.857 211.984 107.971 211.427 108.208C210.869 108.445 210.369 108.8 209.961 109.249C209.104 110.226 208.66 111.498 208.724 112.796C208.659 114.026 209.073 115.233 209.879 116.165C210.265 116.58 210.737 116.907 211.261 117.123C211.786 117.339 212.351 117.439 212.917 117.416C213.973 117.444 215.016 117.177 215.929 116.646L215.915 117.925Z" fill="#F2F2F2" />
    <path d="M221.539 118.599C220.991 118.616 220.447 118.516 219.941 118.305C219.436 118.094 218.982 117.777 218.61 117.375C217.858 116.536 217.468 115.434 217.524 114.309C217.489 113.719 217.573 113.129 217.769 112.572C217.964 112.015 218.269 111.502 218.665 111.064C219.069 110.67 219.55 110.362 220.077 110.161C220.604 109.96 221.167 109.87 221.731 109.895C222.264 109.867 222.797 109.954 223.293 110.151C223.789 110.348 224.237 110.65 224.605 111.036C225.336 111.917 225.704 113.043 225.636 114.185C225.694 115.344 225.294 116.48 224.523 117.348C224.143 117.757 223.681 118.081 223.166 118.297C222.652 118.513 222.097 118.616 221.539 118.599ZM221.635 111.078C221.257 111.062 220.88 111.131 220.532 111.281C220.185 111.431 219.875 111.658 219.628 111.944C219.098 112.625 218.835 113.475 218.885 114.336C218.837 115.172 219.102 115.995 219.628 116.646C219.878 116.928 220.188 117.151 220.535 117.299C220.882 117.446 221.258 117.514 221.635 117.499C222.004 117.521 222.373 117.458 222.714 117.314C223.055 117.171 223.358 116.952 223.601 116.674C224.101 115.991 224.345 115.153 224.289 114.309C224.343 113.46 224.1 112.619 223.601 111.93C223.362 111.646 223.059 111.421 222.718 111.273C222.377 111.125 222.006 111.058 221.635 111.078Z" fill="#F2F2F2" />
    <path d="M232.057 111.49C231.761 111.295 231.408 111.204 231.054 111.229C230.777 111.239 230.506 111.317 230.267 111.456C230.027 111.595 229.825 111.791 229.679 112.026C229.269 112.674 229.072 113.434 229.115 114.199V118.406H227.74V110.156H229.115V111.875C229.266 111.343 229.567 110.866 229.981 110.5C230.34 110.189 230.799 110.018 231.274 110.019C231.54 110.007 231.805 110.044 232.057 110.129V111.49Z" fill="#F2F2F2" />
    <path d="M240.115 114.625H234.299C234.26 115.394 234.51 116.149 235 116.742C235.255 116.997 235.561 117.194 235.897 117.322C236.233 117.45 236.593 117.506 236.953 117.485C237.885 117.476 238.786 117.151 239.51 116.564V117.801C238.66 118.362 237.653 118.636 236.636 118.585C236.123 118.611 235.611 118.523 235.135 118.328C234.66 118.133 234.233 117.836 233.886 117.457C233.17 116.565 232.813 115.437 232.883 114.295C232.833 113.15 233.221 112.029 233.969 111.16C234.309 110.767 234.732 110.455 235.208 110.246C235.683 110.036 236.199 109.935 236.719 109.95C237.188 109.924 237.657 110.004 238.09 110.185C238.523 110.366 238.91 110.643 239.221 110.995C239.854 111.83 240.167 112.864 240.101 113.91L240.115 114.625ZM238.74 113.511C238.768 112.874 238.573 112.247 238.19 111.737C238.002 111.525 237.768 111.358 237.506 111.248C237.244 111.139 236.961 111.09 236.678 111.105C236.382 111.101 236.088 111.159 235.816 111.275C235.544 111.391 235.299 111.563 235.096 111.779C234.644 112.258 234.359 112.87 234.285 113.525L238.74 113.511Z" fill="#F2F2F2" />
  </g>
  <defs>
    <clipPath id="clip0_714_1191">
      <rect width="88" height="88" fill="white" transform="translate(180 50)" />
    </clipPath>
  </defs>
</svg>