<svg width="448" height="187" viewBox="0 0 448 187" fill="none" xmlns="http://www.w3.org/2000/svg">
  <mask id="mask0_714_1166" style="mask-type:alpha" maskUnits="userSpaceOnUse" x="0" y="0" width="448" height="187">
    <rect width="448" height="187" fill="#131F41" />
  </mask>
  <g mask="url(#mask0_714_1166)">
    <rect width="448" height="187" fill="#111226" />
  </g>
  <path d="M108 60H175V127H108V60Z" fill="#F7DF1E" />
  <path d="M125.617 115.99L130.744 112.887C131.733 114.641 132.633 116.125 134.791 116.125C136.86 116.125 138.165 115.316 138.165 112.168V90.7595H144.461V112.257C144.461 118.778 140.638 121.746 135.061 121.746C130.025 121.746 127.101 119.138 125.617 115.99" fill="black" />
  <path d="M147.881 115.315L153.008 112.347C154.357 114.551 156.111 116.17 159.214 116.17C161.823 116.17 163.487 114.866 163.487 113.067C163.487 110.908 161.778 110.143 158.899 108.884L157.326 108.209C152.783 106.276 149.77 103.847 149.77 98.7199C149.77 93.9976 153.368 90.3995 158.99 90.3995C162.992 90.3995 165.871 91.7938 167.939 95.4368L163.037 98.5849C161.958 96.6511 160.789 95.8867 158.99 95.8867C157.146 95.8867 155.976 97.056 155.976 98.5849C155.976 100.474 157.146 101.239 159.844 102.408L161.418 103.083C166.77 105.376 169.783 107.715 169.783 112.977C169.783 118.644 165.331 121.747 159.349 121.747C153.503 121.747 149.725 118.958 147.881 115.315" fill="black" />
  <path d="M192.16 118.18V115.948C194.128 115.948 195.568 115.54 196.48 114.724C197.392 113.884 197.848 112.432 197.848 110.368V93.52H200.188V110.368C200.188 111.856 199.948 113.2 199.468 114.4C199.012 115.576 198.196 116.5 197.02 117.172C195.868 117.844 194.248 118.18 192.16 118.18ZM219.861 118.18C218.877 118.18 218.061 117.94 217.413 117.46C216.765 116.956 216.381 116.296 216.261 115.48C214.965 116.632 213.825 117.4 212.841 117.784C211.857 118.168 210.933 118.36 210.069 118.36C208.533 118.36 207.393 117.868 206.649 116.884C205.929 115.876 205.569 114.676 205.569 113.284C205.569 112.348 205.737 111.508 206.073 110.764C206.433 110.02 207.021 109.432 207.837 109C208.653 108.544 209.769 108.316 211.185 108.316C211.833 108.316 212.589 108.364 213.453 108.46C214.317 108.532 215.157 108.64 215.973 108.784V106.192C215.973 104.632 215.673 103.564 215.073 102.988C214.473 102.388 213.537 102.088 212.265 102.088C211.401 102.088 210.549 102.208 209.709 102.448C208.869 102.664 207.993 102.988 207.081 103.42L206.325 101.656C207.309 101.152 208.281 100.768 209.241 100.504C210.225 100.24 211.233 100.108 212.265 100.108C213.873 100.108 215.085 100.372 215.901 100.9C216.741 101.404 217.317 102.088 217.629 102.952C217.941 103.816 218.097 104.776 218.097 105.832V113.968C218.097 114.64 218.205 115.18 218.421 115.588C218.661 115.996 219.117 116.2 219.789 116.2H220.221V118.18H219.861ZM207.801 113.284C207.801 114.244 208.017 115.012 208.449 115.588C208.905 116.164 209.553 116.452 210.393 116.452C211.065 116.452 211.845 116.236 212.733 115.804C213.645 115.372 214.725 114.592 215.973 113.464V110.692C215.133 110.548 214.269 110.44 213.381 110.368C212.517 110.272 211.797 110.224 211.221 110.224C210.021 110.224 209.145 110.476 208.593 110.98C208.065 111.46 207.801 112.228 207.801 113.284ZM236.479 100.468L230.287 118H228.235L221.935 100.468H224.203L227.119 108.856L229.315 115.372L231.475 108.856L234.355 100.468H236.479ZM253.295 118.18C252.311 118.18 251.495 117.94 250.847 117.46C250.199 116.956 249.815 116.296 249.695 115.48C248.399 116.632 247.259 117.4 246.275 117.784C245.291 118.168 244.367 118.36 243.503 118.36C241.967 118.36 240.827 117.868 240.083 116.884C239.363 115.876 239.003 114.676 239.003 113.284C239.003 112.348 239.171 111.508 239.507 110.764C239.867 110.02 240.455 109.432 241.271 109C242.087 108.544 243.203 108.316 244.619 108.316C245.267 108.316 246.023 108.364 246.887 108.46C247.751 108.532 248.591 108.64 249.407 108.784V106.192C249.407 104.632 249.107 103.564 248.507 102.988C247.907 102.388 246.971 102.088 245.699 102.088C244.835 102.088 243.983 102.208 243.143 102.448C242.303 102.664 241.427 102.988 240.515 103.42L239.759 101.656C240.743 101.152 241.715 100.768 242.675 100.504C243.659 100.24 244.667 100.108 245.699 100.108C247.307 100.108 248.519 100.372 249.335 100.9C250.175 101.404 250.751 102.088 251.063 102.952C251.375 103.816 251.531 104.776 251.531 105.832V113.968C251.531 114.64 251.639 115.18 251.855 115.588C252.095 115.996 252.551 116.2 253.223 116.2H253.655V118.18H253.295ZM241.235 113.284C241.235 114.244 241.451 115.012 241.883 115.588C242.339 116.164 242.987 116.452 243.827 116.452C244.499 116.452 245.279 116.236 246.167 115.804C247.079 115.372 248.159 114.592 249.407 113.464V110.692C248.567 110.548 247.703 110.44 246.815 110.368C245.951 110.272 245.231 110.224 244.655 110.224C243.455 110.224 242.579 110.476 242.027 110.98C241.499 111.46 241.235 112.228 241.235 113.284ZM262.056 116.38C263.52 116.38 264.54 116.14 265.116 115.66C265.716 115.156 266.016 114.436 266.016 113.5C266.016 112.708 265.776 112.06 265.296 111.556C264.84 111.052 263.976 110.644 262.704 110.332L260.76 109.864C259.392 109.528 258.348 108.94 257.628 108.1C256.932 107.236 256.584 106.192 256.584 104.968C256.584 104.128 256.764 103.348 257.124 102.628C257.508 101.884 258.108 101.284 258.924 100.828C259.764 100.348 260.868 100.108 262.236 100.108C263.124 100.108 264.024 100.216 264.936 100.432C265.848 100.624 266.748 100.936 267.636 101.368L266.916 103.204C265.236 102.46 263.676 102.088 262.236 102.088C261.108 102.088 260.232 102.316 259.608 102.772C259.008 103.228 258.708 103.912 258.708 104.824C258.708 105.52 258.924 106.144 259.356 106.696C259.812 107.248 260.64 107.668 261.84 107.956L263.82 108.424C266.7 109.096 268.14 110.752 268.14 113.392C268.14 114.304 267.96 115.144 267.6 115.912C267.24 116.656 266.628 117.256 265.764 117.712C264.9 118.144 263.724 118.36 262.236 118.36C261.228 118.36 260.232 118.252 259.248 118.036C258.264 117.82 257.256 117.484 256.224 117.028L256.8 115.192C257.76 115.576 258.636 115.876 259.428 116.092C260.244 116.284 261.12 116.38 262.056 116.38ZM274.55 108.136V110.296C274.55 112.264 274.922 113.776 275.666 114.832C276.41 115.864 277.598 116.38 279.23 116.38C279.998 116.38 280.778 116.284 281.57 116.092C282.362 115.876 283.166 115.576 283.982 115.192L284.702 116.956C282.878 117.892 280.994 118.36 279.05 118.36C276.818 118.36 275.126 117.652 273.974 116.236C272.846 114.82 272.282 112.84 272.282 110.296V108.136C272.282 105.616 272.846 103.648 273.974 102.232C275.126 100.816 276.818 100.108 279.05 100.108C279.89 100.108 280.778 100.216 281.714 100.432C282.65 100.648 283.538 100.972 284.378 101.404L283.658 103.204C282.938 102.868 282.206 102.604 281.462 102.412C280.718 102.196 279.974 102.088 279.23 102.088C277.598 102.088 276.41 102.604 275.666 103.636C274.922 104.668 274.55 106.168 274.55 108.136ZM298.136 102.268C297.128 102.268 296.12 102.46 295.112 102.844C294.104 103.228 292.928 104.08 291.584 105.4V118H289.424V100.468H291.476V103.384C292.7 102.112 293.84 101.248 294.896 100.792C295.952 100.336 297.032 100.108 298.136 100.108V102.268ZM304.526 95.464H301.934V92.836H304.526V95.464ZM304.31 118H302.15V100.468H304.31V118ZM317.81 118.36C317.066 118.36 316.31 118.276 315.542 118.108C314.798 117.964 314.054 117.748 313.31 117.46V125.668H311.15V100.468H313.202V102.952C314.282 101.968 315.314 101.248 316.298 100.792C317.282 100.336 318.29 100.108 319.322 100.108C321.17 100.108 322.574 100.816 323.534 102.232C324.518 103.624 325.01 105.604 325.01 108.172V110.332C325.01 112.78 324.398 114.736 323.174 116.2C321.95 117.64 320.162 118.36 317.81 118.36ZM318.89 102.16C318.122 102.16 317.318 102.352 316.478 102.736C315.662 103.096 314.606 103.876 313.31 105.076V115.372C314.798 116.044 316.262 116.38 317.702 116.38C319.502 116.38 320.786 115.84 321.554 114.76C322.346 113.68 322.742 112.204 322.742 110.332V108.172C322.742 106.108 322.43 104.596 321.806 103.636C321.182 102.652 320.21 102.16 318.89 102.16ZM339.943 117.316C338.623 118.012 337.291 118.36 335.947 118.36C334.747 118.36 333.811 118.12 333.139 117.64C332.467 117.136 331.999 116.476 331.735 115.66C331.471 114.844 331.339 113.98 331.339 113.068V102.376H328.135V100.468H331.339V95.356H333.499V100.468H339.439V102.376H333.499V112.888C333.499 114.232 333.703 115.168 334.111 115.696C334.543 116.2 335.239 116.452 336.199 116.452C337.111 116.452 338.107 116.164 339.187 115.588L339.943 117.316Z" fill="white" />
</svg>