<svg width="448" height="187" viewBox="0 0 448 187" fill="none" xmlns="http://www.w3.org/2000/svg">
  <mask id="mask0_714_1137" style="mask-type:alpha" maskUnits="userSpaceOnUse" x="0" y="0" width="448" height="187">
    <rect x="6.10352e-05" width="448" height="187" fill="#131F41" />
  </mask>
  <g mask="url(#mask0_714_1137)">
    <rect x="6.10352e-05" width="448" height="187" fill="#E3E8EE" />
  </g>
  <path d="M171.76 70.1026H182.691L182.691 91.5473L202.849 70.1026H216.051L195.822 90.9166L216.974 119.159L203.843 119.159L188.44 98.2756L182.691 104.162L182.691 119.159H171.76L171.76 70.1012V70.1026Z" fill="#231F20" />
  <path d="M211.163 100.588V100.448C211.163 89.6554 219.964 80.8949 231.818 80.8949C243.6 80.8949 252.331 89.5149 252.331 100.307V100.448C252.331 111.24 243.529 120 231.676 120C219.893 120 211.163 111.38 211.163 100.587V100.588ZM241.684 100.588V100.448C241.684 94.9113 237.638 90.0758 231.676 90.0758C225.501 90.0758 221.81 94.771 221.81 100.308V100.448C221.81 105.984 225.855 110.82 231.818 110.82C237.993 110.82 241.684 106.124 241.684 100.588V100.588Z" fill="#231F20" />
  <path d="M255.31 108.507V90.7066H250.767V81.596H255.31L255.31 71.9948H266.099V81.596H275.042V90.7066H266.099V106.755C266.099 109.208 267.163 110.4 269.577 110.4C271.564 110.4 273.339 109.909 274.9 109.068V117.618C272.629 118.949 270.002 119.79 266.383 119.79C259.782 119.79 255.31 117.197 255.31 108.507L255.31 108.507Z" fill="#231F20" />
  <path d="M278.142 68H288.931L288.931 119.157H278.142L278.142 68H278.142Z" fill="#231F20" />
  <path d="M292.83 68H304.187V77.4611H292.83L292.83 68H292.83ZM293.114 81.5956H303.903L303.903 119.159L293.114 119.159L293.114 81.5956V81.5956Z" fill="#231F20" />
  <path d="M308.006 81.5956H318.795V86.9217C321.279 83.7681 324.473 80.895 329.939 80.895C338.101 80.895 342.857 86.2212 342.857 94.8411V119.159L332.068 119.159V98.2048C332.068 93.1593 329.654 90.5661 325.538 90.5661C321.421 90.5661 318.795 93.1593 318.795 98.2048L318.795 119.159H308.006L308.006 81.5956L308.006 81.5956Z" fill="#231F20" />
  <path d="M131.023 70.0778L106.081 95.975V119.124L130.987 94.4925L155.76 70.0778H131.023Z" fill="url(#paint0_linear_714_1137)" />
  <path d="M106.081 119.124L130.987 94.4926L155.76 119.124H106.081Z" fill="url(#paint1_linear_714_1137)" />
  <path d="M106.081 70.0779H131.023L106.081 95.975V70.0779Z" fill="url(#paint2_linear_714_1137)" />
  <defs>
    <linearGradient id="paint0_linear_714_1137" x1="100.451" y1="112.474" x2="139.776" y2="72.6446" gradientUnits="userSpaceOnUse">
      <stop offset="0.10753" stop-color="#C757BC" />
      <stop offset="0.21383" stop-color="#D0609A" />
      <stop offset="0.42537" stop-color="#E1725C" />
      <stop offset="0.60485" stop-color="#EE7E2F" />
      <stop offset="0.74303" stop-color="#F58613" />
      <stop offset="0.82323" stop-color="#F88909" />
    </linearGradient>
    <linearGradient id="paint1_linear_714_1137" x1="123.602" y1="126.331" x2="144.319" y2="105.348" gradientUnits="userSpaceOnUse">
      <stop offset="0.09677" stop-color="#0095D5" />
      <stop offset="0.30073" stop-color="#238AD9" />
      <stop offset="0.62106" stop-color="#557BDE" />
      <stop offset="0.86432" stop-color="#7472E2" />
      <stop offset="1" stop-color="#806EE3" />
    </linearGradient>
    <linearGradient id="paint2_linear_714_1137" x1="103.803" y1="85.276" x2="121.91" y2="66.9366" gradientUnits="userSpaceOnUse">
      <stop offset="0.09677" stop-color="#0095D5" />
      <stop offset="0.30073" stop-color="#238AD9" />
      <stop offset="0.62106" stop-color="#557BDE" />
      <stop offset="0.86432" stop-color="#7472E2" />
      <stop offset="1" stop-color="#806EE3" />
    </linearGradient>
  </defs>
</svg>